<svg width="211" height="127" viewBox="0 0 211 127" fill="none" xmlns="http://www.w3.org/2000/svg">
<g clip-path="url(#clip0)">
<path d="M48.0343 6.53516V59.2522C48.0343 62.9554 45.841 64.916 41.235 64.916C35.7516 64.916 33.7776 62.9554 33.7776 58.3808V5.66381C33.7776 2.39623 35.9709 0 39.261 0H42.1123C46.0603 0 48.0343 2.17839 48.0343 6.53516Z" fill="#59358C"/>
<path d="M107.255 85.1749C99.7973 85.1749 99.1393 81.036 99.1393 77.1149C99.1393 71.0154 100.894 68.837 107.035 68.837C114.493 68.837 115.151 72.5403 115.151 76.8971C115.151 83.4322 112.519 85.1749 107.255 85.1749Z" fill="#59358C"/>
<path d="M126.337 85.1749C118.879 85.1749 118.221 81.036 118.221 77.1149C118.221 71.0154 119.976 68.837 126.117 68.837C133.575 68.837 134.233 72.5403 134.233 76.8971C134.233 83.4322 131.601 85.1749 126.337 85.1749Z" fill="#59358C"/>
<path d="M145.419 85.1749C137.961 85.1749 137.303 81.036 137.303 77.1149C137.303 71.0154 139.058 68.837 145.2 68.837C152.657 68.837 153.315 72.5403 153.315 76.8971C153.315 83.4322 150.683 85.1749 145.419 85.1749Z" fill="#59358C"/>
<path d="M164.501 85.1749C157.044 85.1749 156.386 81.036 156.386 77.1149C156.386 71.0154 158.14 68.837 164.282 68.837C171.739 68.837 172.397 72.5403 172.397 76.8971C172.616 83.4322 169.765 85.1749 164.501 85.1749Z" fill="#59358C"/>
<path d="M183.803 85.1749C176.345 85.1749 175.687 81.036 175.687 77.1149C175.687 71.0154 177.442 68.837 183.583 68.837C191.041 68.837 191.699 72.5403 191.699 76.8971C191.699 83.4322 189.067 85.1749 183.803 85.1749Z" fill="#59358C"/>
<path d="M202.885 85.1749C195.427 85.1749 194.769 81.036 194.769 77.1149C194.769 71.0154 196.524 68.837 202.665 68.837C210.123 68.837 210.781 72.5403 210.781 76.8971C210.781 83.4322 208.149 85.1749 202.885 85.1749Z" fill="#59358C"/>
<path d="M202.885 64.9158C195.427 64.9158 194.769 60.9947 194.769 57.2915C194.769 51.6277 196.524 49.2314 202.665 49.2314C210.123 49.2314 210.781 52.7169 210.781 56.8558C210.781 63.1731 208.149 64.9158 202.885 64.9158Z" fill="#59358C"/>
<path d="M168.888 43.1322H183.364H187.531C191.918 43.1322 193.673 42.043 193.673 38.1219C193.673 34.6364 191.26 17.645 171.739 17.645C160.114 17.645 149.148 24.1802 149.148 42.2608C149.148 57.2917 159.018 65.1339 171.958 65.1339C185.338 65.1339 191.699 57.0738 191.699 54.2419C191.699 52.0635 188.409 49.6673 185.557 49.6673C180.951 49.6673 179.635 55.9846 171.958 55.9846C167.352 55.9846 162.746 51.8457 162.746 47.9246C162.746 44.8749 164.72 43.1322 168.888 43.1322ZM166.694 27.6656C167.572 27.2299 168.449 27.0121 169.107 26.7942C170.642 26.3586 172.836 26.3586 174.59 26.7942C175.248 27.0121 175.906 27.2299 176.564 27.6656C180.293 29.6262 179.854 32.0224 179.854 32.0224C179.854 34.4186 177.88 35.29 175.906 35.7256C173.713 36.1613 170.204 36.1613 168.668 35.9435C166.256 35.7256 163.185 34.8543 163.185 31.8045C163.404 32.2402 162.966 29.6262 166.694 27.6656Z" fill="#59358C"/>
<path d="M121.731 56.4202C127.433 56.4202 132.259 51.8456 132.259 42.4785C132.259 33.5471 129.188 26.7941 122.169 26.7941C116.686 26.7941 111.641 31.1509 111.641 41.1715C111.641 51.4099 115.809 56.4202 121.731 56.4202ZM99.1393 5.66374C99.1393 2.39616 100.675 0.217773 103.745 0.217773H107.474C110.106 0.217773 112.08 1.96048 112.08 5.66374V14.1595C112.08 16.7735 113.396 18.9519 115.809 18.9519C118.66 18.9519 120.195 17.427 125.459 17.427C136.646 17.427 144.98 25.2692 144.98 39.8644C144.98 56.638 136.207 64.9159 125.021 64.9159C118.221 64.9159 118.002 62.7375 113.615 62.7375C109.229 62.7375 109.667 64.6981 105.5 64.6981C100.675 64.6981 99.3586 62.9553 99.3586 57.2915V5.66374H99.1393Z" fill="#59358C"/>
<path d="M21.0574 32.2401V58.5986C21.0574 62.7376 19.0834 64.916 14.258 64.916C9.43266 64.916 7.23932 63.3911 7.23932 58.5986V33.1115C7.45865 27.8834 5.70397 27.012 3.07196 25.9228C0.878608 24.8336 0.220604 23.7444 0.00126933 22.4374C-0.218065 20.4768 0.220604 19.3877 0.878608 18.7341C1.75595 17.6449 3.29129 16.9914 4.16863 16.5557C7.23932 14.5952 6.80065 13.0703 8.11666 8.06004C8.99399 5.44597 11.8453 0 19.7414 0H23.2508C26.9794 0 29.6115 2.17839 29.6115 4.57461C29.6115 6.53516 30.2695 9.80274 26.9794 10.2384C24.1281 10.6741 22.5928 11.5455 22.5928 13.7238C22.5928 15.2487 23.6894 15.9022 26.3214 16.9914C28.2955 17.8628 29.6115 18.952 29.6115 21.3482C29.6115 25.9228 24.7861 25.9228 23.2508 27.012C21.7154 28.319 21.0574 29.6261 21.0574 32.2401Z" fill="#59358C"/>
<path d="M87.7339 17.645C84.6632 17.645 83.5665 18.7342 82.6892 21.5661L76.1091 43.35C75.6705 44.657 74.7931 45.5284 73.4771 45.5284C72.1611 45.5284 71.2838 44.657 70.8451 43.35L65.1424 23.3088C65.1424 23.3088 65.1424 23.3088 65.1424 23.091L64.9231 21.784C64.2651 18.7342 62.0717 17.645 60.317 17.645H56.369C51.9823 17.8629 52.2017 22.0018 52.6403 23.7445L57.2464 37.904C57.2464 38.1219 57.2464 38.1219 57.2464 38.3397L65.3617 63.8268C66.4584 66.4409 63.8264 69.2728 60.317 69.9263C57.027 70.5798 55.053 72.1047 55.053 74.9366C55.053 77.9864 57.027 79.7291 59.8784 79.7291H66.2391C71.5031 79.7291 75.4511 77.5507 79.1798 66.4409L93.6559 27.2299C96.7266 19.3877 92.5592 17.8629 91.4626 17.8629C91.0239 17.645 88.8305 17.645 87.7339 17.645Z" fill="#59358C"/>
<path d="M21.2754 103.691C21.4948 103.909 21.4948 104.127 21.4948 104.563C21.4948 104.781 21.4948 105.216 21.2754 105.434C21.0561 105.652 20.8368 105.652 20.3981 105.652H15.5727V120.247C15.5727 120.683 15.3534 120.901 15.1341 121.118C14.9147 121.336 14.6954 121.554 14.2567 121.554C13.8181 121.554 13.5987 121.336 13.3794 121.118C13.16 120.901 13.16 120.465 13.16 120.247V105.652H8.11535C7.89602 105.652 7.45735 105.652 7.23801 105.434C7.01868 105.216 7.01868 104.998 7.01868 104.563C7.01868 104.345 7.01868 103.909 7.23801 103.691C7.45735 103.474 7.67668 103.474 8.11535 103.474H20.6174C20.8368 103.256 21.0561 103.474 21.2754 103.691Z" fill="#59358C"/>
<path d="M28.9522 108.919C29.3909 109.137 29.6102 109.573 29.6102 109.791V110.009C29.3909 110.444 29.1715 110.662 28.7328 110.662C28.7328 110.662 28.5135 110.662 28.2942 110.662C27.6362 110.662 27.1975 110.444 26.7588 110.444C25.6622 110.444 24.7848 110.662 24.1268 111.316C23.4688 111.751 23.0301 112.405 23.0301 113.276V120.029C23.0301 120.465 23.0301 120.683 22.8108 120.901C22.5915 121.118 22.3721 121.118 21.9335 121.118C21.4948 121.118 21.2755 121.118 21.0561 120.901C20.8368 120.683 20.8368 120.465 20.8368 120.029V109.573C20.8368 109.137 20.8368 108.919 21.0561 108.702C21.2755 108.484 21.4948 108.484 21.9335 108.484C22.8108 108.484 23.0301 108.919 23.0301 109.573V110.009C23.4688 109.573 24.1268 109.137 24.7848 108.702C25.4428 108.484 26.1008 108.266 26.9782 108.266C27.8555 108.484 28.5135 108.702 28.9522 108.919Z" fill="#59358C"/>
<path d="M40.1382 109.573C41.0156 110.227 41.8929 110.88 42.5509 111.969C43.2089 113.059 43.4283 114.148 43.4283 115.237V120.465C43.4283 120.901 43.2089 121.119 42.9896 121.336C42.7703 121.554 42.5509 121.772 42.1123 121.772C41.6736 121.772 41.4543 121.554 41.2349 121.336C41.0156 121.119 40.7963 120.901 40.7963 120.465V119.594C40.3576 120.247 39.6996 120.683 38.8222 121.119C37.9449 121.554 37.2869 121.772 36.4096 121.772C35.3129 121.772 34.2162 121.554 33.3389 120.901C32.4615 120.247 31.8035 119.594 31.1455 118.505C30.7069 117.415 30.2682 116.326 30.2682 115.237C30.2682 113.93 30.4875 112.841 31.1455 111.969C31.8035 110.88 32.4615 110.227 33.5582 109.573C34.6549 108.92 35.5322 108.702 36.8482 108.702C37.9449 108.702 39.0416 108.92 40.1382 109.573ZM38.8222 118.94C39.4802 118.505 39.9189 118.069 40.3576 117.415C40.7963 116.762 40.7963 116.108 40.7963 115.237C40.7963 114.366 40.5769 113.712 40.3576 113.059C39.9189 112.405 39.4802 111.969 38.8222 111.534C38.1642 111.098 37.5062 110.88 36.6289 110.88C35.7516 110.88 35.0936 111.098 34.4355 111.534C33.7775 111.969 33.3389 112.405 32.9002 113.059C32.4615 113.712 32.4615 114.366 32.4615 115.237C32.4615 116.108 32.6809 116.762 32.9002 117.415C33.3389 118.069 33.7775 118.505 34.4355 118.94C35.0936 119.376 35.7516 119.594 36.6289 119.594C37.5062 119.376 38.3836 119.158 38.8222 118.94Z" fill="#59358C"/>
<path d="M48.0342 104.127C48.2536 104.345 48.4729 104.781 48.4729 105.216C48.4729 105.652 48.2536 106.088 48.0342 106.305C47.8149 106.523 47.3762 106.741 46.9376 106.741C46.4989 106.741 46.0602 106.523 45.8409 106.305C45.6216 106.088 45.4022 105.652 45.4022 105.216C45.4022 104.781 45.6216 104.345 45.8409 104.127C46.0602 103.909 46.4989 103.691 46.9376 103.691C47.3762 103.691 47.5956 103.691 48.0342 104.127ZM46.0602 109.137C46.2796 108.92 46.4989 108.92 46.9376 108.92C47.3762 108.92 47.5956 108.92 47.8149 109.137C48.0342 109.355 48.0342 109.573 48.0342 110.009V120.247C48.0342 120.683 48.0342 120.901 47.8149 121.118C47.5956 121.336 47.3762 121.554 46.9376 121.554C46.4989 121.554 46.2796 121.336 46.0602 121.118C45.8409 120.901 45.6216 120.683 45.6216 120.247V110.009C45.6216 109.573 45.8409 109.355 46.0602 109.137Z" fill="#59358C"/>
<path d="M60.317 109.355C61.1943 109.791 61.8523 110.445 62.291 111.316C62.7297 112.187 62.949 113.276 62.949 114.583V120.247C62.949 120.683 62.7297 120.901 62.5103 121.119C62.291 121.336 62.0717 121.554 61.633 121.554C61.1943 121.554 60.975 121.336 60.7557 121.119C60.5363 120.901 60.317 120.683 60.317 120.247V114.583C60.317 113.276 59.8783 112.405 59.2203 111.752C58.5623 111.098 57.685 110.88 56.5883 110.88C55.9303 110.88 55.2723 111.098 54.8336 111.316C54.395 111.534 53.9563 111.969 53.5176 112.405C53.2983 112.841 53.0789 113.276 53.0789 113.93V120.465C53.0789 120.901 53.0789 121.119 52.8596 121.336C52.6403 121.554 52.4209 121.772 51.9823 121.772C51.5436 121.772 51.3243 121.554 51.1049 121.336C50.8856 121.119 50.6663 120.901 50.6663 120.465V110.227C50.6663 109.791 50.8856 109.573 51.1049 109.355C51.3243 109.138 51.5436 109.138 51.9823 109.138C52.4209 109.138 52.6403 109.138 52.8596 109.355C53.0789 109.573 53.0789 109.791 53.0789 110.227V110.445C53.5176 110.009 54.1756 109.573 54.8336 109.355C55.4916 109.138 56.1496 108.92 57.027 108.92C58.5623 108.702 59.4397 108.92 60.317 109.355Z" fill="#59358C"/>
<path d="M68.2131 104.127C68.4324 104.345 68.6517 104.781 68.6517 105.216C68.6517 105.652 68.4324 106.088 68.2131 106.305C67.9937 106.523 67.5551 106.741 67.1164 106.741C66.6777 106.741 66.2391 106.523 66.0197 106.305C65.8004 106.088 65.5811 105.652 65.5811 105.216C65.5811 104.781 65.8004 104.345 66.0197 104.127C66.2391 103.909 66.6777 103.691 67.1164 103.691C67.5551 103.691 67.7744 103.691 68.2131 104.127ZM66.2391 109.137C66.4584 108.92 66.6777 108.92 67.1164 108.92C67.5551 108.92 67.7744 108.92 67.9937 109.137C68.2131 109.355 68.2131 109.573 68.2131 110.009V120.247C68.2131 120.683 68.2131 120.901 67.9937 121.118C67.7744 121.336 67.5551 121.554 67.1164 121.554C66.6777 121.554 66.4584 121.336 66.2391 121.118C66.0197 120.901 65.8004 120.683 65.8004 120.247V110.009C65.8004 109.573 66.0197 109.355 66.2391 109.137Z" fill="#59358C"/>
<path d="M80.4958 109.355C81.3732 109.791 82.0312 110.445 82.4698 111.316C82.9085 112.187 83.1278 113.276 83.1278 114.583V120.247C83.1278 120.683 82.9085 120.901 82.6892 121.119C82.4698 121.336 82.2505 121.554 81.8118 121.554C81.3731 121.554 81.1538 121.336 80.9345 121.119C80.7152 120.901 80.4958 120.683 80.4958 120.247V114.583C80.4958 113.276 80.0571 112.405 79.3991 111.752C78.7411 111.098 77.8638 110.88 76.7671 110.88C76.1091 110.88 75.4511 111.098 75.0125 111.316C74.5738 111.534 74.1351 111.969 73.6964 112.405C73.4771 112.841 73.2578 113.276 73.2578 113.93V120.465C73.2578 120.901 73.2578 121.119 73.0384 121.336C72.8191 121.554 72.5998 121.772 72.1611 121.772C71.7224 121.772 71.5031 121.554 71.2838 121.336C71.0644 121.119 70.8451 120.901 70.8451 120.465V110.227C70.8451 109.791 71.0644 109.573 71.2838 109.355C71.5031 109.138 71.7224 109.138 72.1611 109.138C72.5998 109.138 72.8191 109.138 73.0384 109.355C73.2578 109.573 73.2578 109.791 73.2578 110.227V110.445C73.6964 110.009 74.3544 109.573 75.0125 109.355C75.6705 109.138 76.3285 108.92 77.2058 108.92C78.7411 108.702 79.6185 108.92 80.4958 109.355Z" fill="#59358C"/>
<path d="M94.9719 109.355C95.8492 110.009 96.7266 110.662 97.1652 111.534C97.8232 112.405 98.0426 113.712 98.0426 114.801V119.812C98.0426 121.119 97.8232 122.208 97.1652 123.079C96.7266 124.168 95.8492 124.822 94.9719 125.475C93.8752 126.129 92.7785 126.347 91.6819 126.347C90.5852 126.347 89.4885 126.129 88.6112 125.693C87.7338 125.258 86.8565 124.604 86.1985 123.733C85.9792 123.515 85.9792 123.297 85.9792 123.079C85.9792 122.861 86.1985 122.426 86.4178 122.208C86.6372 121.99 86.8565 121.99 87.0758 121.99C87.5145 121.99 87.7338 122.208 87.9532 122.426C88.3918 122.861 88.8305 123.297 89.4885 123.733C90.1465 123.951 90.8045 124.168 91.6819 124.168C92.3399 124.168 93.2172 123.951 93.6559 123.733C94.3139 123.297 94.7526 122.861 95.1912 122.208C95.6299 121.554 95.8492 120.683 95.8492 119.594V118.505C95.4106 119.376 94.7526 120.029 93.8752 120.465C92.9979 120.901 92.1205 121.119 91.2432 121.119C90.1465 121.119 89.0499 120.901 88.1725 120.247C87.2952 119.594 86.6372 118.94 85.9792 118.069C85.5405 117.198 85.3212 115.891 85.3212 114.801C85.3212 113.494 85.5405 112.405 86.1985 111.534C86.6372 110.662 87.5145 109.791 88.3918 109.355C89.2692 108.702 90.5852 108.484 91.6819 108.484C92.9979 108.702 94.0945 108.92 94.9719 109.355ZM93.8752 118.94C94.5332 118.505 94.9719 118.069 95.4106 117.415C95.8492 116.762 95.8492 116.108 95.8492 115.237C95.8492 114.366 95.6299 113.712 95.4106 113.059C94.9719 112.405 94.5332 111.969 93.8752 111.534C93.2172 111.098 92.5592 110.88 91.6819 110.88C90.8045 110.88 90.1465 111.098 89.4885 111.534C88.8305 111.969 88.3918 112.405 87.9532 113.059C87.5145 113.712 87.5145 114.366 87.5145 115.237C87.5145 116.108 87.7338 116.762 87.9532 117.415C88.3918 118.069 88.8305 118.505 89.4885 118.94C90.1465 119.376 90.8045 119.594 91.6819 119.594C92.5592 119.594 93.2172 119.158 93.8752 118.94Z" fill="#59358C"/>
<path d="M122.389 120.247C122.389 120.465 122.169 120.901 121.95 121.119C121.731 121.336 121.511 121.554 121.073 121.554C120.853 121.554 120.634 121.554 120.415 121.336C120.195 121.119 119.976 121.119 119.976 120.901L118.66 117.633H110.325L109.009 120.901C109.009 121.119 108.79 121.336 108.571 121.336C108.351 121.554 108.132 121.554 107.913 121.554C107.474 121.554 107.255 121.336 107.035 121.119C106.816 120.901 106.597 120.683 106.597 120.247C106.597 120.029 106.597 119.812 106.816 119.812L113.396 104.345C113.615 103.909 114.054 103.474 114.493 103.474C115.151 103.474 115.37 103.691 115.589 104.345L122.169 120.029C122.389 119.812 122.389 120.029 122.389 120.247ZM118.002 115.455L114.712 107.177L111.203 115.455H118.002Z" fill="#59358C"/>
<path d="M134.013 110.662C134.233 110.88 134.233 111.098 134.233 111.316C134.233 111.752 134.013 111.969 133.794 112.187C133.575 112.187 133.355 112.405 133.355 112.405C132.917 112.405 132.697 112.187 132.478 111.969C132.039 111.534 131.601 111.098 131.162 111.098C130.723 110.88 130.285 110.88 129.627 110.88C128.53 110.88 127.433 111.316 126.775 111.969C126.117 112.841 125.679 113.712 125.679 115.237C125.679 116.108 125.898 116.762 126.117 117.415C126.556 118.069 126.995 118.505 127.653 118.94C128.311 119.376 128.969 119.594 129.846 119.594C130.943 119.594 131.82 119.376 132.478 118.722C132.697 118.505 133.136 118.505 133.355 118.505C133.575 118.505 133.794 118.505 134.013 118.722C134.233 118.94 134.452 119.158 134.452 119.594C134.452 119.812 134.452 120.029 134.233 120.247C133.136 121.336 131.82 121.772 130.065 121.772C128.749 121.772 127.653 121.554 126.775 120.901C125.898 120.247 125.021 119.594 124.582 118.505C123.924 117.415 123.705 116.326 123.705 115.237C123.705 113.93 123.924 112.841 124.582 111.969C125.021 110.88 125.898 110.227 126.775 109.573C127.653 108.92 128.749 108.702 130.065 108.702C131.381 108.702 132.917 109.355 134.013 110.662Z" fill="#59358C"/>
<path d="M145.419 109.573C146.296 110.227 147.174 110.88 147.832 111.969C148.49 113.059 148.709 114.148 148.709 115.237V120.465C148.709 120.901 148.49 121.119 148.27 121.336C148.051 121.554 147.832 121.772 147.393 121.772C146.954 121.772 146.735 121.554 146.516 121.336C146.296 121.119 146.077 120.901 146.077 120.465V119.594C145.638 120.247 144.98 120.683 144.103 121.119C143.226 121.554 142.568 121.772 141.69 121.772C140.594 121.772 139.497 121.554 138.62 120.901C137.742 120.247 137.084 119.594 136.426 118.505C135.988 117.415 135.549 116.326 135.549 115.237C135.549 113.93 135.768 112.841 136.426 111.969C137.084 110.88 137.742 110.227 138.839 109.573C139.936 108.92 140.813 108.702 142.129 108.702C143.226 108.702 144.322 108.92 145.419 109.573ZM144.322 118.94C144.98 118.505 145.419 118.069 145.858 117.415C146.296 116.762 146.296 116.108 146.296 115.237C146.296 114.366 146.077 113.712 145.858 113.059C145.419 112.405 144.98 111.969 144.322 111.534C143.664 111.098 143.006 110.88 142.129 110.88C141.252 110.88 140.594 111.098 139.936 111.534C139.278 111.969 138.839 112.405 138.4 113.059C137.962 113.712 137.962 114.366 137.962 115.237C137.962 116.108 138.181 116.762 138.4 117.415C138.839 118.069 139.278 118.505 139.936 118.94C140.594 119.376 141.252 119.594 142.129 119.594C143.006 119.376 143.664 119.158 144.322 118.94Z" fill="#59358C"/>
<path d="M162.746 103.691C162.966 103.909 162.966 104.127 162.966 104.563V115.237C162.966 116.544 162.746 117.633 162.088 118.504C161.43 119.594 160.772 120.247 159.676 120.901C158.798 121.554 157.702 121.772 156.386 121.772C155.289 121.772 154.192 121.554 153.096 120.901C151.999 120.247 151.341 119.594 150.683 118.504C150.025 117.415 149.806 116.326 149.806 115.237C149.806 113.93 150.025 112.841 150.683 111.969C151.122 110.88 151.999 110.227 152.876 109.573C153.754 108.919 154.85 108.702 155.947 108.702C156.824 108.702 157.702 108.92 158.36 109.355C159.237 109.791 159.895 110.227 160.334 110.88V104.563C160.334 104.127 160.553 103.909 160.772 103.691C160.992 103.474 161.211 103.474 161.65 103.474C162.308 103.256 162.527 103.474 162.746 103.691ZM158.798 118.94C159.456 118.504 159.895 118.069 160.334 117.415C160.772 116.762 160.772 116.108 160.772 115.237C160.772 114.365 160.553 113.712 160.334 113.058C159.895 112.405 159.456 111.969 158.798 111.534C158.14 111.098 157.482 110.88 156.605 110.88C155.728 110.88 155.07 111.098 154.412 111.534C153.754 111.969 153.315 112.405 152.876 113.058C152.438 113.712 152.438 114.365 152.438 115.237C152.438 116.108 152.657 116.762 152.876 117.415C153.315 118.069 153.754 118.504 154.412 118.94C155.07 119.376 155.728 119.594 156.605 119.594C157.482 119.376 158.14 119.158 158.798 118.94Z" fill="#59358C"/>
<path d="M176.784 115.672C176.564 115.89 176.345 115.89 175.906 115.89H167.133C167.352 116.979 167.791 117.851 168.668 118.504C169.546 119.158 170.423 119.594 171.739 119.594C172.178 119.594 172.616 119.594 173.274 119.376C173.932 119.158 174.152 118.94 174.59 118.722C174.81 118.504 175.029 118.504 175.468 118.504C175.687 118.504 175.906 118.504 176.126 118.722C176.345 118.94 176.564 119.158 176.564 119.594C176.564 119.811 176.345 120.029 176.126 120.247C175.687 120.683 175.029 120.901 174.152 121.336C173.274 121.554 172.616 121.772 171.958 121.772C170.642 121.772 169.546 121.554 168.449 120.901C167.352 120.247 166.694 119.594 166.036 118.722C165.378 117.851 165.159 116.544 165.159 115.455C165.159 114.148 165.378 113.058 166.036 112.187C166.475 111.098 167.352 110.444 168.23 109.791C169.107 109.137 170.204 108.919 171.52 108.919C172.616 108.919 173.713 109.137 174.59 109.791C175.468 110.226 176.126 111.098 176.564 111.969C177.003 112.841 177.222 113.93 177.222 115.237C177.222 115.237 177.003 115.455 176.784 115.672ZM168.668 111.534C168.01 112.187 167.572 113.058 167.352 113.93H175.029C174.81 112.841 174.59 111.969 173.932 111.534C173.274 110.88 172.397 110.662 171.52 110.662C170.204 110.662 169.326 110.88 168.668 111.534Z" fill="#59358C"/>
<path d="M195.647 110.009C196.524 110.88 196.963 112.187 196.963 113.712V120.247C196.963 120.683 196.963 120.901 196.743 121.118C196.524 121.336 196.305 121.554 195.866 121.554C195.427 121.554 195.208 121.336 194.989 121.118C194.769 120.901 194.55 120.683 194.55 120.247V113.712C194.55 112.84 194.331 111.969 193.892 111.533C193.453 111.098 192.795 110.88 191.918 110.88C191.041 110.88 190.383 111.098 189.944 111.751C189.505 112.405 189.067 113.058 189.067 113.93V120.465C189.067 120.901 189.067 121.118 188.847 121.336C188.628 121.554 188.409 121.772 187.97 121.772C187.531 121.772 187.312 121.554 187.093 121.336C186.873 121.118 186.654 120.901 186.654 120.465V113.93C186.654 113.058 186.435 112.187 185.996 111.751C185.557 111.316 184.899 111.098 184.022 111.098C183.145 111.098 182.486 111.316 182.048 111.969C181.609 112.623 181.17 113.276 181.17 114.148V120.683C181.17 121.118 181.17 121.336 180.951 121.554C180.732 121.772 180.512 121.99 180.074 121.99C179.635 121.99 179.416 121.772 179.196 121.554C178.977 121.336 178.758 121.118 178.758 120.683V110.444C178.758 110.009 178.977 109.791 179.196 109.573C179.416 109.355 179.635 109.355 180.074 109.355C180.512 109.355 180.732 109.355 180.951 109.573C181.17 109.791 181.39 110.009 181.39 110.444C181.828 110.009 182.267 109.791 182.925 109.573C183.583 109.355 184.022 109.137 184.68 109.137C185.557 109.137 186.215 109.355 186.873 109.573C187.531 109.791 187.97 110.444 188.409 110.88C188.847 110.226 189.505 109.791 190.163 109.573C190.821 109.355 191.699 109.137 192.576 109.137C193.892 108.702 194.769 109.137 195.647 110.009Z" fill="#59358C"/>
<path d="M211 109.791C211 110.009 211 110.227 210.781 110.444L203.543 126.347C203.323 126.782 203.104 127 202.665 127C202.446 127 202.227 127 202.007 126.782C201.569 126.565 201.349 126.347 201.349 125.911C201.349 125.693 201.349 125.475 201.569 125.258L203.981 120.029L198.717 110.227C198.717 110.009 198.498 110.009 198.498 109.791C198.498 109.573 198.498 109.355 198.717 109.137C198.937 108.92 198.937 108.92 199.156 108.702C199.375 108.702 199.375 108.702 199.595 108.702C200.033 108.702 200.253 108.92 200.472 109.355L204.639 117.851L208.368 109.355C208.587 108.92 208.807 108.702 209.245 108.702C209.465 108.702 209.684 108.702 209.903 108.92C210.561 108.92 211 109.355 211 109.791Z" fill="#59358C"/>
</g>
<defs>
<clipPath id="clip0">
<rect width="211" height="127" fill="white"/>
</clipPath>
</defs>
</svg>
